<?xml version="1.0" encoding="UTF-8"?>
<svg width="18px" height="15px" viewBox="0 0 18 15" version="1.1" xmlns="http://www.w3.org/2000/svg" xmlns:xlink="http://www.w3.org/1999/xlink">
    <!-- Generator: Sketch 64 (93537) - https://sketch.com -->
    <title>web/icons/Modal/title</title>
    <desc>Created with Sketch.</desc>
    <g id="Connect_App_v4.2.20" stroke="none" stroke-width="1" fill="none" fill-rule="evenodd">
        <g id="通用授权-01" transform="translate(-71.000000, -629.000000)">
            <g id="编组-9" transform="translate(48.000000, 602.000000)">
                <g id="icons/Modal/title" transform="translate(16.000000, 19.000000)">
                    <rect id="矩形" x="0" y="0" width="32" height="32"></rect>
                    <g id="icons/Authorize/wallet" transform="translate(6.000000, 6.000000)">
                        <g>
                            <rect id="矩形" fill="#000000" fill-rule="nonzero" opacity="0" x="0" y="0" width="20" height="20"></rect>
                            <path d="M18.5898734,13.3541667 L14.7620253,13.3541667 C13.3037975,13.3541667 12.164557,12.1805556 12.164557,10.78125 L12.164557,8.56944445 C12.164557,7.12500001 13.3493671,5.99652779 14.7620253,5.99652777 L18.5898734,5.99652777 C18.7265823,5.99652777 18.8632911,5.99652777 19,6.04166667 L19,5.36458333 C19,3.73958333 17.678481,2.43055556 16.0379747,2.43055556 L3.96202531,2.43055556 C2.32151899,2.43055556 1,3.73958333 1,5.31944444 L1,13.9409722 C1,15.5659722 2.32151899,16.875 3.96202531,16.875 L16.0379747,16.875 C17.678481,16.875 19,15.5659722 19,13.9861111 L19,13.3090278 C18.8632911,13.3090278 18.7265823,13.3541667 18.5898734,13.3541667 Z" id="路径" fill="#FFFFFF" fill-rule="nonzero"></path>
                            <path d="M14.625,7.98611111 C14.2678571,7.98611111 14,8.28914141 14,8.59217171 L14,10.7133838 C14,11.0597042 14.3125,11.3194444 14.625,11.3194444 L18.375,11.3194444 C18.7321429,11.3194444 19,11.0164141 19,10.7133838 L19,8.59217171 C19,8.24585136 18.6875,7.98611111 18.375,7.98611111 L14.625,7.98611111 L14.625,7.98611111 Z" id="路径" fill="#FFFFFF" fill-rule="nonzero"></path>
                        </g>
                    </g>
                </g>
            </g>
        </g>
    </g>
</svg>