<?xml version="1.0" encoding="UTF-8"?>
<svg width="32px" height="32px" viewBox="0 0 32 32" version="1.1" xmlns="http://www.w3.org/2000/svg" xmlns:xlink="http://www.w3.org/1999/xlink">
    <title>web/icons/Modal/title</title>
    <g id="Connect_App_v4.2.20" stroke="none" stroke-width="1" fill="none" fill-rule="evenodd">
        <g id="收款-选择钱包" transform="translate(-40.000000, -681.000000)">
            <g id="Group-2" transform="translate(0.000000, 297.000000)">
                <g id="Group-5" transform="translate(24.000000, 368.000000)">
                    <g id="icons/Modal/title" transform="translate(16.000000, 16.000000)">
                        <rect id="矩形" x="0" y="0" width="32" height="32"></rect>
                        <g id="icons/Authorize/wallet" transform="translate(5.000000, 4.000000)" fill-rule="nonzero">
                            <rect id="矩形" fill="#000000" opacity="0" x="0" y="0" width="22.5" height="22.5"></rect>
                            <path d="M20.9136076,15.0234375 L16.6072785,15.0234375 C14.9667721,15.0234375 13.6851266,13.703125 13.6851266,12.1289062 L13.6851266,9.64062501 C13.6851266,8.01562501 15.018038,6.74609377 16.6072785,6.74609374 L20.9136076,6.74609374 C21.067405,6.74609374 21.2212025,6.74609374 21.375,6.796875 L21.375,6.03515625 C21.375,4.20703125 19.8882911,2.734375 18.0427215,2.734375 L4.45727848,2.734375 C2.61170886,2.734375 1.125,4.20703125 1.125,5.98437499 L1.125,15.6835938 C1.125,17.5117188 2.61170886,18.984375 4.45727848,18.984375 L18.0427215,18.984375 C19.8882911,18.984375 21.375,17.5117188 21.375,15.734375 L21.375,14.9726563 C21.2212025,14.9726563 21.0674051,15.0234375 20.9136076,15.0234375 Z" id="路径" fill="#FFFFFF"></path>
                            <path d="M16.453125,8.984375 C16.0513393,8.984375 15.75,9.32528409 15.75,9.66619318 L15.75,12.0525568 C15.75,12.4421672 16.1015625,12.734375 16.453125,12.734375 L20.671875,12.734375 C21.0736607,12.734375 21.375,12.3934659 21.375,12.0525568 L21.375,9.66619318 C21.375,9.27658278 21.0234375,8.984375 20.671875,8.984375 L16.453125,8.984375 L16.453125,8.984375 Z" id="路径" fill="#FFFFFF"></path>
                        </g>
                    </g>
                </g>
            </g>
        </g>
    </g>
</svg>